<?xml version="1.0" encoding="utf-8"?>
<!-- Generator: Adobe Illustrator 25.4.1, SVG Export Plug-In . SVG Version: 6.00 Build 0)  -->
<svg version="1.1" id="Layer_1" xmlns="http://www.w3.org/2000/svg" xmlns:xlink="http://www.w3.org/1999/xlink" x="0px" y="0px"
	 viewBox="0 0 31.9 32" style="enable-background:new 0 0 31.9 32;" xml:space="preserve">
<g>
	<g>
		<path d="M32.3,22.6c0,1.3,0,2.6,0,3.9c-0.2,0.3-0.4,0.5-0.6,0.8c0,0,0,0.1,0,0.1c0,0,0.1,0,0.1,0c0,0,0-0.1,0.1-0.1
			c0.2-0.2,0.3-0.5,0.5-0.7c0,1.8,0,3.6,0,5.4c0,0.1,0,0.1-0.1,0.1c-4.6,0-9.2,0-13.9,0c0.2,0,0.3-0.1,0.4-0.2c0,0,0,0,0,0
			c0.2-0.1,0.3-0.1,0.5-0.2c0.3-0.1,0.5-0.1,0.8-0.2c0.2-0.1,0.4-0.1,0.6,0c0,0,0-0.1,0-0.1c-0.3-0.3-0.6-0.6-0.9-0.9
			c0,0-0.1-0.1-0.1,0c-0.2,0.1-0.5,0-0.7,0c-0.1,0-0.1-0.1-0.1-0.2c0,0,0-0.1,0-0.1c0.1,0,0.2-0.1,0.3-0.1c0.3,0,0.6-0.1,0.8-0.3
			c0.1,0,0.1-0.1,0.2-0.1c0,0,0.1,0,0.1,0c0-0.1,0.1-0.1,0.1,0c0,0,0.1,0.1,0.1,0c0.1,0,0-0.1,0-0.1c0.1,0,0.2,0.1,0.3,0.1
			c0.1,0.1,0.3,0.1,0.4-0.1c0,0,0.1-0.1,0.1-0.1c0.1-0.1,0.1-0.1,0.2,0c0.1,0.1,0.3,0,0.5,0.1c0.1,0,0.1,0,0.2-0.1
			c0,0,0.1,0,0.1-0.1c0.2-0.1,0.3,0,0.5-0.1c0.2-0.1,0.3-0.1,0.5-0.2c0.1,0,0.2-0.2,0.4-0.1c0,0,0.1,0,0.1,0c0,0,0.1-0.1,0.1-0.1
			c0.3-0.1,0.6-0.3,0.9-0.4c0.1,0,0.2,0,0.2-0.1c0-0.1-0.1-0.1-0.2-0.2c-0.1-0.1-0.2-0.1-0.2-0.2c0.1,0.1,0.2,0.1,0.2,0.2
			c0.1,0.2,0.2,0.2,0.4,0.1c0.1-0.1,0.3-0.2,0.4-0.2c0.3-0.1,0.5-0.3,0.7-0.5c0.2-0.1,0.3-0.2,0.5-0.4c0.4-0.3,0.8-0.7,1.1-1
			c0.1-0.2,0.2-0.3,0.4-0.4c0.2-0.1,0.2-0.3,0.3-0.5c-0.1,0-0.1,0-0.1,0.1c-0.1,0-0.1,0.1-0.2,0c0,0,0-0.1,0-0.1
			c0-0.1,0.1-0.1,0.1-0.2c0,0,0.1-0.1,0.1-0.1c0.1,0,0.1,0,0.1-0.1c0-0.1,0.1-0.1,0.1,0c0,0,0.1,0.1,0.2,0.1c0-0.1-0.1-0.1-0.1-0.1
			c-0.1-0.1-0.1-0.2-0.1-0.3c0-0.1,0.1-0.2,0.1-0.4c0-0.1,0.1-0.2,0.1-0.2c0.1-0.1,0.1-0.1,0-0.2c0,0,0-0.1,0-0.1
			c0.1-0.1,0.1-0.3,0.2-0.4c0.2-0.3,0.4-0.6,0.5-1c0,0,0,0,0.1,0c0.1,0,0.1,0,0.1-0.1c0.1-0.1,0.2-0.3,0.1-0.4c0,0,0-0.1,0-0.1
			c0.1-0.3,0.2-0.5,0.3-0.8c0.1-0.2,0.1-0.5,0.2-0.7c0-0.1,0.1-0.2,0-0.3c-0.1,0-0.1,0.1-0.1,0.1c0.1-0.2,0.1-0.4,0.2-0.6
			c0-0.1,0-0.1,0.1,0c0,0,0,0,0.1,0c-0.1-0.1-0.2-0.2-0.3-0.3c0,0-0.1,0,0-0.1c0,0,0.1,0,0.1,0.1c0,0,0.1,0.1,0.1,0c0,0,0-0.1,0-0.1
			c-0.1-0.1-0.1,0-0.2,0c0,0,0-0.1,0-0.1c-0.1-0.1-0.1-0.2-0.1-0.3c0-0.2,0.1-0.3,0-0.5c0,0,0.1-0.1,0-0.1c-0.1-0.1,0-0.2-0.1-0.4
			c0.2,0.2,0.2,0,0.2-0.1c0-0.1,0-0.2,0-0.3c0-0.1,0-0.1,0-0.1c-0.2-0.1-0.1-0.3-0.1-0.5c0.1,0.1,0.2,0.2,0.3,0.2
			c0-0.1,0-0.3-0.1-0.4c-0.2-0.1-0.3-0.3-0.2-0.5c0-0.1,0-0.1-0.1-0.2c0,0.1,0,0.3,0,0.4c0-0.1-0.1-0.1-0.1-0.1c0.1-0.1,0-0.1,0-0.2
			c0,0,0,0,0,0c0,0,0,0,0,0.1c0,0.1,0,0.1,0,0.2c-0.1,0-0.1-0.1-0.1-0.2c0-0.1,0-0.2,0-0.3c0,0,0-0.1,0-0.2c0-0.1,0-0.2,0-0.3
			c0.1-0.1-0.1-0.2-0.1-0.3c0,0,0-0.1,0-0.1C30,14,30,13.6,29.9,13.2c-0.1-0.5-0.2-1-0.4-1.5c-0.1-0.3-0.2-0.6-0.4-1
			c-0.1-0.3-0.2-0.5-0.3-0.8c0.1,0.1,0.1,0.1,0.2,0.2c0.1,0.1,0.2,0.1,0.2,0.2c0,0.2,0.2,0,0.2,0.2c-0.1,0-0.1,0-0.1,0.1
			c0.1,0.2,0.2,0.4,0.2,0.6c0,0,0,0.1,0.1,0c0-0.1,0-0.2,0-0.4c-0.1-0.1-0.1-0.2-0.2-0.3c0.1,0.1,0.3,0.2,0.4,0.4
			c0.2,0.5,0.4,0.9,0.4,1.4c0,0,0,0.1,0,0.2c-0.1-0.3-0.2-0.5-0.3-0.8c-0.1,0,0,0.1,0,0.1c0,0.3,0,0.7,0.1,1C30,13,30,13.2,30,13.4
			c0,0.1,0.1,0.1,0.1,0.2c0,0.1,0,0.1,0,0.2c0.1,0.2,0.2,0.4,0.2,0.7c0,0.1,0,0.2,0.1,0.3c0-0.1,0-0.3,0-0.4c0-0.1,0-0.2,0-0.2
			c0-0.1,0-0.1,0.1-0.1c0.1,0,0.1,0,0.2-0.1c0-0.1,0-0.2,0-0.3c0-0.2-0.1-0.4-0.1-0.6c-0.1-0.6-0.3-1.2-0.5-1.8c0-0.1-0.1-0.2,0-0.3
			c0.1,0.2,0.2,0.1,0.3,0.1c-0.2-0.3-0.5-0.6-0.8-0.9c0.1,0,0.1,0.1,0.2,0.1c0-0.1,0-0.2-0.2-0.2c0.1-0.1,0.1-0.2,0.2-0.2
			c-0.1,0-0.1,0-0.1,0c-0.1-0.2-0.1-0.4-0.2-0.5c-0.2-0.3-0.3-0.6-0.5-0.9c-0.4-0.3-0.7-0.7-1.1-1c-1-1-1.9-1.9-2.9-2.9
			c-0.4-0.4-0.8-0.8-1.2-1.2c-0.1-0.1-0.1-0.1-0.1,0c0,0,0,0.1-0.1,0.1c-0.2,0-0.3,0-0.5,0c-0.3-0.1-0.5-0.2-0.8-0.3
			c-0.1,0-0.2-0.1-0.3-0.1c0.2,0.1,0.3,0.1,0.5,0.2c0,0-0.1,0-0.1,0C21.8,3.2,21.4,3,21,2.9c-0.3-0.1-0.7-0.2-1-0.3
			c-0.2,0-0.3-0.2-0.5-0.2c-0.3,0-0.5-0.1-0.8-0.1c0,0-0.1,0-0.1,0c0,0,0,0,0,0c0.1-0.1,0.2-0.1,0.4-0.1c0.2,0.1,0.3,0.1,0.5,0
			c0,0,0.1,0,0.1,0c0.3,0.1,0.6,0.1,0.8,0.1c0.1,0,0.1,0,0.1,0.1c0.1,0.1,0.2,0.1,0.4,0.1c0,0,0.1,0,0.1,0c0.1,0.1,0.3,0.1,0.5,0.1
			c0.1,0,0.1,0.1,0.2,0.1c0,0.1,0,0.1,0.1,0.1c0,0,0.1,0,0.1,0C22,2.9,22,3,22.1,3c0,0,0-0.1,0-0.1c-0.1-0.1-0.1-0.2,0-0.3
			c0.1,0,0.1-0.1,0.1-0.2c-0.1,0.1-0.2,0.2-0.4,0.1c0,0.1,0.1,0.1,0.1,0.2c-0.3-0.2-0.5-0.5-0.8-0.7c0.1,0.1,0.2,0.2,0.2,0.3
			c-0.1-0.1-0.3,0-0.4-0.2c0,0,0,0,0,0c-0.2,0-0.4-0.1-0.5-0.2c-0.3-0.1-0.7-0.2-1-0.3c-0.1-0.1-0.3-0.1-0.4-0.1
			c-0.2,0-0.4-0.1-0.6-0.2c0,0-0.1,0-0.1-0.1c0-0.1,0.1,0,0.1,0c0.3,0,0.6,0,0.8,0.1c0.5,0.1,0.9,0.1,1.4,0.2c0,0,0,0,0-0.1
			c-0.1-0.1-0.2,0-0.3-0.1c-0.5-0.1-1-0.2-1.4-0.2c-0.5-0.1-1-0.1-1.5-0.1c-0.1,0-0.2,0-0.3,0.1c0.1,0,0.1,0,0.2,0
			c0.1,0,0.2,0,0.2,0c0,0,0.1,0,0.1,0.1c0,0.1-0.1,0.1-0.1,0.1c-0.1,0-0.1,0-0.2,0.1c0,0.1,0.1,0,0.2,0.1c-0.5,0.3-1.1,0-1.7,0.2
			c0.4,0,0.7,0,1,0c0.2,0,0.4,0.1,0.6,0.2c0,0,0,0,0,0.1c0,0,0,0-0.1,0c-0.1,0-0.1,0-0.2,0c0,0-0.1,0-0.1,0.1C17,2,17,2,17,2
			c0.2,0,0.4,0,0.5,0.2c0,0,0.1,0.1,0.1,0.1c0.1,0.1,0.1,0.1,0.2,0.2c-0.4,0-0.8,0-1.1,0c-0.3,0-0.6,0-0.9,0
			c-0.6,0.1-1.2,0.1-1.8,0.3c-0.6,0.1-1.2,0.3-1.8,0.5C11.6,3.5,11,3.7,10.5,4c-0.1,0-0.1,0-0.2,0c-0.1-0.1-0.2-0.2-0.3-0.3
			c0,0.1,0.1,0.1,0.1,0.2c0,0,0.1,0.1,0,0.1c-0.3,0.2-0.3,0.2-0.6,0C9.4,3.9,9.4,3.8,9.3,3.7C9.2,3.6,9,3.5,8.9,3.3
			c0.1,0.2,0.1,0.2,0,0.3c-0.1,0-0.1-0.1-0.2-0.1c0,0,0,0,0,0C8.9,3.8,9.1,4,9.3,4.2c0.1,0.1,0.2,0.2,0.3,0.4c0.1,0.1,0,0.1,0,0.2
			C9.5,4.8,9.4,4.8,9.3,4.9c-0.1,0-0.2,0.2-0.3,0c0,0,0,0,0,0C8.8,5,8.7,5.2,8.7,5.3c0,0,0,0,0,0.1c0,0,0,0,0,0.1
			C8.5,5.6,8.3,5.8,8.1,5.9C7.9,6,7.6,6,7.4,6.1c0,0-0.1,0-0.1,0c0,0,0-0.1,0-0.1C7.5,6,7.5,5.9,7.6,5.9c0,0,0,0,0,0
			C7.3,6.1,7,6.3,6.8,6.6C6.9,6.5,6.9,6.5,7,6.4c0.1,0,0.1-0.2,0.2-0.1c0.1,0.1,0,0.1-0.1,0.2C7,6.6,6.9,6.7,6.9,6.8
			C6.6,7,6.4,7.3,6.2,7.6C6.2,7.7,6.1,7.7,6,7.6l0,0c-0.1-0.1-0.1,0-0.1,0c-0.4,0.5-0.7,1-1.1,1.6c0,0.1,0,0.1,0,0.1
			c0.1,0,0.1,0.1,0,0.2c-0.1,0.2-0.2,0.4-0.3,0.6c-0.3,0.6-0.5,1.1-0.7,1.7c-0.3,0.8-0.4,1.7-0.5,2.5c-0.1,0.7-0.1,1.3-0.1,2
			c0,0,0,0.1,0,0.2c-0.1-0.1-0.2-0.2-0.4-0.3c0.2,0.2,0.2,0.2,0.2,0.3c-0.1,0-0.1-0.1-0.2-0.1c0.1,0.2,0.2,0.3,0.4,0.4
			c0.1,0.1,0.1,0.1,0.1,0.2c0,0.3,0,0.5,0.1,0.8C3.6,18.9,3.9,20,4.3,21c0.8,1.9,2,3.5,3.6,4.9c1.4,1.2,3,2.1,4.8,2.7
			c0.9,0.3,1.8,0.5,2.8,0.6c0.7,0.1,1.5,0.1,2.2,0c0.6,0,1.3-0.2,1.9-0.3c0.6-0.1,1.2-0.3,1.8-0.5c0,0,0.1,0,0.1-0.1
			c0.1-0.2,0.3-0.2,0.4-0.3c-0.1,0.1-0.2,0.2-0.3,0.3c0,0,0,0,0,0c0.1-0.1,0.3-0.2,0.4-0.2c0.1,0,0.2,0,0.2-0.1c0.1-0.1,0.1,0,0.2,0
			c0.1,0.1,0.2,0.2,0.3,0.3c0.1,0.1,0.1,0.1,0,0.2c-0.2,0.1-0.3,0.2-0.5,0.3c-0.4,0.2-0.7,0.3-1.1,0.4c-0.1,0-0.3,0-0.4,0.1
			c-0.1,0.1-0.2,0.1-0.3,0c0.1,0,0.1-0.1,0-0.1c0.1,0,0.1,0,0.2-0.1c-0.1,0-0.2,0-0.3,0.1c-0.1,0-0.1,0-0.2,0c-0.1,0-0.1,0-0.2,0
			c-0.1,0.1-0.2,0.1-0.3,0.1c0,0-0.1-0.1-0.1-0.1c-0.1,0,0,0.1,0,0.2l0,0c-0.2-0.1-0.5-0.1-0.8,0c-0.1,0-0.2,0-0.3,0
			c-0.1,0-0.2,0-0.2,0c-0.2,0.1-0.5-0.1-0.7,0c-0.1,0-0.2,0.1-0.2,0c-0.2,0-0.4,0-0.5,0c-0.1,0-0.1,0-0.2,0c0,0-0.1,0-0.1,0
			c0,0.1-0.1,0.1-0.1,0.1c-0.3,0-0.7,0-1,0c0,0-0.1,0-0.1,0c-0.1,0-0.2,0-0.3,0c-0.2,0-0.4-0.1-0.6-0.1c0,0-0.1,0-0.1,0
			c0.1,0.1,0.2,0.2,0.3,0.2c0.1,0,0.3,0,0.4,0.2c0,0,0.1,0,0.1,0c0-0.1,0.1-0.1,0.2,0c0,0.1-0.1,0-0.1,0.1c0.1,0,0.2,0,0.2,0.2
			c0,0,0,0,0.1,0c0.2-0.1,0.3,0,0.5,0.1c0.1,0,0.2,0.1,0.3,0.1c0.1,0,0.2,0.1,0.2,0.2c0,0.1,0,0.2,0.1,0.3c0.1,0.1,0,0.3-0.2,0.3
			c-0.2,0-0.4,0.2-0.5,0.3c-0.1,0.1-0.1,0.3,0.1,0.3c0.2,0.1,0.4,0.1,0.6,0.1c0.1,0,0.1,0.1,0.2,0.1c0.1,0.2,0.1,0.3,0.3,0.4
			c-5.7,0-11.4,0-17.2,0c0-0.1,0-0.1,0-0.2c0-10.6,0-21.2,0-31.8c0-0.1,0-0.2,0.2-0.2c4.7,0,9.3,0,14,0c5.9,0,11.9,0,17.8,0
			c0.1,0,0.1,0,0.2,0c0,7.3,0,14.6,0,22c0,0.1-0.1,0.1-0.1,0.2c-0.1,0.2-0.1,0.4-0.3,0.6c-0.2,0.2-0.5,0.5-0.7,0.7
			c0,0-0.1,0.1-0.1,0.1c0.1-0.1,0.1-0.3,0.1-0.4c-0.1,0-0.1,0.1-0.2,0.1c-0.1,0.1-0.2,0.2-0.2,0.3c-0.2,0.4-0.4,0.7-0.7,1
			c0,0,0,0.1-0.1,0c0.1-0.2,0.3-0.4,0.4-0.6c0-0.1,0.1-0.1,0.1-0.2c0,0,0-0.1,0-0.1c0,0-0.1,0-0.1,0c-0.2,0.3-0.4,0.6-0.6,0.8
			c-0.1,0.1-0.2,0.3-0.3,0.4c-0.1,0.1-0.2,0.2-0.1,0.3c-0.1,0-0.1-0.1-0.2-0.1c0,0.1-0.1,0.2-0.1,0.3c-0.3,0.3-0.5,0.7-0.9,0.9
			c-0.3,0.2-0.5,0.3-0.8,0.6c-0.1,0.1-0.2,0.2-0.3,0.3c-0.3,0.3-0.7,0.5-1,0.7c-0.2,0.2-0.5,0.4-0.7,0.5c-0.1,0-0.1,0.1,0,0.1
			c0.1,0.1,0.1,0.2,0.2,0.1c0.1,0,0.2-0.1,0.2-0.1c0.2-0.1,0.3-0.2,0.5-0.4c-0.1,0.2-0.3,0.4-0.6,0.5c-0.1,0.1-0.2,0.1-0.1,0.3
			c-0.2-0.1-0.3-0.3-0.5-0.4c0.1,0.1,0.1,0.1,0,0.2c-0.2,0.1-0.3,0.2-0.5,0.3c-0.1,0-0.1,0-0.2,0.1c-0.2,0.2-0.5,0.4-0.8,0.5
			c-0.2,0.1-0.5,0.2-0.7,0.3c-0.4,0.2-0.9,0.4-1.3,0.4c-0.4,0.1-0.8,0.2-1.3,0.3c-0.1,0-0.2,0-0.3,0c0,0-0.1,0-0.1,0.1
			c0,0,0,0.1,0,0.1c0.2,0.2,0.5,0.5,0.7,0.7c0,0,0.1,0.1,0.1,0.1c0.1,0,0.2,0,0.3-0.1c0.7-0.2,1.4-0.4,2.1-0.6
			c0.1,0,0.3-0.1,0.4-0.1c0.1-0.1,0.2-0.1,0.3-0.1c0.1,0,0.1-0.1,0.2,0c0.1,0.1,0.1,0,0.2,0c0.2-0.2,0.4-0.4,0.6-0.6
			c0.3-0.3,0.5-0.5,0.8-0.8c0,0,0,0,0.1,0c-0.1,0.1-0.2,0.3-0.4,0.4c0.2-0.1,0.3-0.2,0.5-0.2c-0.1,0.2-0.3,0.2-0.5,0.3
			c-0.2,0.1-0.4,0.3-0.6,0.5c0,0-0.1,0,0,0.1c0,0,0.1,0,0.1,0c0.1,0,0.2-0.1,0.3-0.1c0.3-0.1,0.5-0.3,0.8-0.4
			c0.1-0.1,0.2-0.1,0.3-0.1c0-0.1-0.1-0.2-0.2-0.2c-0.1-0.1-0.1-0.1-0.2-0.2c-0.1-0.1-0.1-0.1,0-0.2c0.7-0.7,1.4-1.4,2.1-2.1
			c0.5-0.5,0.9-0.9,1.4-1.4c0,0,0.1-0.1,0.1,0c0,0,0,0.1,0,0.1c0,0,0,0.1-0.1,0.1c-0.1,0.1-0.2,0.2-0.3,0.4
			c-0.4,0.5-0.8,0.8-1.2,1.2c-0.2,0.2-0.5,0.4-0.8,0.6c-0.4,0.4-0.7,0.7-1.1,1.1c0,0-0.1,0.1,0,0.2c0.1,0.1,0.1,0.1,0.2,0
			c0.3-0.2,0.6-0.4,0.9-0.7c0.5-0.4,0.9-0.8,1.4-1.2c0.2-0.2,0.5-0.5,0.7-0.7c0.2-0.3,0.5-0.5,0.7-0.8c0,0,0.1-0.1,0.1,0
			c0,0,0,0.1,0,0.1c-0.1,0.1-0.1,0.1-0.2,0.2c-0.2,0.3-0.5,0.6-0.7,0.8c-0.2,0.3-0.5,0.5-0.8,0.8c-0.3,0.3-0.7,0.6-1,0.8
			c-0.3,0.2-0.6,0.4-0.9,0.6c0,0-0.1,0.1-0.1,0.1c0,0.1,0.1,0.1,0.1,0.1c0.1,0,0.1,0,0.1,0c0.3-0.2,0.6-0.4,1-0.6
			c0.3-0.2,0.5-0.5,0.8-0.7c0.3-0.3,0.6-0.6,0.9-0.9c0.3-0.3,0.5-0.7,0.8-1c0.1-0.1,0.1-0.2,0.3-0.2c0-0.1-0.1-0.1-0.1-0.1
			c-0.1-0.1-0.2-0.3-0.4-0.4c-0.1-0.1-0.1-0.1,0-0.2c0.5-0.5,1-1,1.5-1.5c0.4-0.4,0.8-0.9,1.3-1.3C32.3,22.5,32.3,22.5,32.3,22.6
			c-0.1,0-0.2,0.1-0.3,0.2c0,0-0.1,0.1,0,0.1c0.1,0,0.1,0,0.1-0.1C32.1,22.8,32.2,22.7,32.3,22.6z M8.3,3.2c0,0-0.1-0.1-0.1,0
			C8,3.3,7.9,3.3,7.8,3.5c-0.1,0.1,0,0.1,0,0.1c0.1,0,0.1,0.2,0.2,0.1c0.1-0.1,0.2-0.2,0.3-0.3C8.4,3.4,8.4,3.3,8.3,3.2
			c0.1,0.1,0.3,0.1,0.4,0c0,0,0,0,0-0.1C8.6,3.1,8.6,3,8.5,3C8.4,3,8.3,3.1,8.3,3.2z M7.6,3.5c0,0.2-0.1,0.2-0.2,0.3
			C7,4.1,6.7,4.4,6.4,4.7c-0.5,0.5-1,1.1-1.5,1.7c-0.1,0.1,0,0.1,0,0.2c0.1,0.1,0.1,0,0.1,0C5.3,6.3,5.4,6,5.6,5.8
			c0.6-0.6,1.2-1.2,1.8-1.7C7.6,4,7.7,3.8,7.9,3.9C7.8,3.7,7.7,3.6,7.6,3.5z M9.2,2.9C9.2,2.8,9.2,2.8,9.2,2.9
			c0.4-0.2,0.8-0.4,1.1-0.7c0.1-0.1,0.2-0.1,0.3-0.2c0,0,0-0.1,0-0.1c0-0.1-0.1-0.1-0.1-0.1c-0.1,0.1-0.2-0.1-0.2,0.1c0,0,0,0,0,0
			C9.8,2,9.5,2.3,9.1,2.5c0,0-0.1,0-0.1,0.1C9,2.8,9.1,2.8,9.2,2.9z M30.7,24.1c0,0-0.1,0.1-0.1,0.1c-0.3,0.3-0.6,0.6-0.9,0.9
			c-0.1,0.1-0.1,0.1,0,0.3c0.1,0.1,0.2,0.1,0.2,0c0.2-0.2,0.3-0.5,0.5-0.7C30.5,24.5,30.6,24.4,30.7,24.1z M4.5,4.2
			C4.4,4.2,4.3,4.3,4.3,4.4C3.9,4.7,3.7,5,3.5,5.3C3.4,5.4,3.4,5.5,3.3,5.6c0,0,0,0.1,0,0.1c0.1,0,0.1,0,0.1,0
			c0.1-0.2,0.2-0.3,0.3-0.4C4.1,5,4.2,4.6,4.5,4.2z M22.8,3.2c0.1,0,0.2,0,0.2-0.1C23,3,22.9,3,22.9,3c-0.2-0.1-0.4-0.2-0.6-0.3
			c-0.1,0-0.1,0-0.2,0c-0.1,0.1,0,0.2,0.1,0.2C22.3,3,22.4,3,22.5,3.1C22.6,3.2,22.7,3.2,22.8,3.2z M29.9,4
			C29.9,4.1,29.9,4.1,29.9,4c0.4,0.4,0.8,0.8,1.2,1.2c0,0,0,0,0.1,0c0,0,0.1,0.1,0.1,0c0,0,0-0.1,0-0.1c0,0,0,0,0-0.1
			c-0.3-0.4-0.7-0.7-1.1-1C30,4.1,29.9,4.1,29.9,4z M4.9,6.7C4.9,6.7,4.9,6.7,4.9,6.7c-0.1-0.1-0.1-0.1-0.2,0
			C4.5,6.9,4.4,7.1,4.3,7.3c0,0.1-0.1,0.1,0,0.2c0.1,0.1,0.1,0,0.2,0c0,0,0,0,0,0C4.6,7.2,4.7,7,4.9,6.7C4.9,6.8,4.9,6.8,4.9,6.7z
			 M31,24c-0.1,0-0.1,0.1-0.1,0.1c-0.2,0.3-0.3,0.5-0.5,0.8c-0.1,0.2-0.3,0.4-0.4,0.6c0,0-0.1,0.1,0,0.1c0,0,0.1,0,0.1,0
			c0.1-0.1,0.2-0.3,0.3-0.4c0.2-0.2,0.3-0.5,0.4-0.7C30.8,24.4,31,24.2,31,24z M15.3,1.5c-0.3,0-1.6,0.2-1.7,0.3
			C14.1,1.7,14.7,1.6,15.3,1.5z M31.3,27.2c0,0.1,0.1,0.1,0.1,0.1c0,0,0.1,0.1,0,0.1c-0.1,0.1,0,0.2-0.1,0.2c0,0-0.1,0.1,0,0.1
			c0,0,0.1,0,0.1,0c0.1-0.1,0.2-0.1,0.3,0c0,0,0,0,0,0C31.6,27.5,31.5,27.3,31.3,27.2z M2,7.6C2.3,7.3,2.6,7,2.9,6.7
			C2.6,6.9,2.3,7.2,2,7.6z M16.3,30.8C16.3,30.8,16.3,30.8,16.3,30.8C16.3,30.8,16.3,30.8,16.3,30.8c-0.2,0.1-0.3,0.2-0.4,0.2
			c0,0,0,0,0,0c0,0.1-0.1,0.2-0.1,0.3c0,0-0.1,0.1,0,0.1C15.9,31.2,16.1,31,16.3,30.8z M3,15.5c0-0.3,0.2-0.6,0.1-0.9
			C3,14.7,2.9,15.1,3,15.5z M27.8,26.9C27.8,27,27.8,27,27.8,26.9c0.4-0.3,0.7-0.6,1-0.9c0,0,0,0,0,0C28.5,26.3,28.1,26.6,27.8,26.9
			z M27.2,3.4c0,0.1,0.1,0.1,0.1,0.1c0.2,0.2,0.4,0.3,0.6,0.5c0,0,0.1,0.1,0.1,0.1C28.1,4,28,4,28,4C27.7,3.8,27.5,3.6,27.2,3.4z
			 M4.7,4.9C4.4,5.1,4.2,5.3,4,5.6C4.2,5.4,4.5,5.1,4.7,4.9z M2.3,7.5C2.1,7.6,2,7.7,2,7.9c0,0,0,0,0,0.1C2,8,2,8,2,7.9
			C2.1,7.8,2.2,7.7,2.3,7.5z M2.7,6.1c0.1,0.2,0.2,0.3,0.4,0.4C3,6.4,2.8,6.2,2.7,6.1z M23.3,2.3c0.2,0.1,0.5,0.2,0.7,0.3
			C23.8,2.5,23.6,2.4,23.3,2.3z M4.3,7.8C4.2,7.6,4.1,7.5,4,7.4C4.1,7.7,4.2,7.7,4.3,7.8z M24.3,3.4C24.2,3.4,24.2,3.3,24.3,3.4
			c-0.2-0.1-0.2-0.1-0.2,0c0,0.1,0,0.1,0.1,0.1C24.2,3.5,24.2,3.5,24.3,3.4z M20.5,30c0,0,0.1,0,0.1-0.1c0-0.1-0.1-0.1-0.1,0
			c-0.1,0-0.1,0-0.1,0.1C20.4,30,20.4,29.9,20.5,30z M3,6.1c0,0-0.1,0-0.1,0.1c0,0,0,0.1,0.1,0.1C3.1,6.3,3.1,6.2,3,6.1
			C3.1,6.1,3.1,6.1,3,6.1z M2.6,11.2C2.6,11.2,2.6,11.2,2.6,11.2c-0.1,0.2-0.1,0.4-0.2,0.5c0,0,0,0,0,0C2.5,11.5,2.5,11.3,2.6,11.2z
			 M8.9,4.8C8.8,4.7,8.7,4.7,8.5,4.9C8.6,4.9,8.7,4.7,8.9,4.8z M30.3,15.1c0.1-0.2,0.1-0.2,0-0.3C30.3,14.9,30.3,15,30.3,15.1z
			 M14.9,29.7C14.8,29.7,14.8,29.7,14.9,29.7C14.8,29.8,14.9,29.8,14.9,29.7C14.9,29.8,15,29.8,14.9,29.7
			C15,29.7,14.9,29.7,14.9,29.7z M25,4.4C25,4.4,25,4.4,25,4.4c-0.1-0.1-0.1,0-0.1,0C24.8,4.5,24.9,4.5,25,4.4C25,4.5,25,4.5,25,4.4
			z M20.5,29C20.5,29,20.5,29,20.5,29c-0.1,0-0.2,0-0.2,0c0,0,0,0,0.1,0C20.4,29.1,20.5,29.1,20.5,29z"/>
		<path d="M7.1,6.5c0,0,0.1-0.1,0.1-0.1c0,0,0-0.1,0.1,0c0,0,0,0.1,0,0.1C7.2,6.6,7.1,6.7,7,6.7C7,6.8,6.9,6.9,6.8,6.9
			c0-0.1,0-0.1,0-0.1C6.9,6.7,7,6.6,7.1,6.5z"/>
		<path d="M10.5,5.7c0-0.1,0.1-0.1,0.1-0.1c0.2-0.1,0.5-0.3,0.7-0.4c0,0,0.1,0,0.1-0.1c0,0,0,0,0.1-0.1c0.1,0,0.2-0.1,0.3-0.2
			c-0.1,0-0.3,0-0.4,0.1c-0.1,0-0.1,0-0.1,0c0,0,0-0.1,0-0.1c0-0.1,0.1-0.1,0.2-0.1c0,0,0.1,0,0.1,0c0.4-0.2,0.8-0.3,1.2-0.5
			C13.1,4.1,13.6,4,14,3.9c0.8-0.2,1.6-0.3,2.5-0.3c0.3,0,0.6,0,0.8,0c-0.8,0.1-1.5,0.1-2.3,0.2C15,4,15.1,4,15.1,4c0,0,0.1,0.1,0,0
			c0,0,0,0,0,0c0.3,0,0.6-0.1,0.9-0.1c-0.3,0-0.5,0.1-0.8,0.1c1.3-0.1,2.6-0.2,4,0.1c-0.9-0.1-1.9-0.2-2.8-0.1c0.2,0,0.3,0,0.5,0
			c1.1,0,2.3,0.1,3.3,0.4c0.6,0.2,1.3,0.4,1.9,0.6c0.7,0.3,1.4,0.8,2.1,1.3c0.2,0.1,0.4,0.2,0.6,0.4c0.2,0.2,0.4,0.4,0.6,0.6
			c1.5,1.3,2.4,3,3,4.8c0.5,1.4,0.7,2.8,0.6,4.2c-0.1,1.5-0.4,3-1,4.4c-0.3,0.7-0.6,1.3-1,1.9c-0.1,0.2-0.3,0.3-0.6,0.4
			c-0.3,0-0.6,0-0.9-0.1c-0.3-0.1-0.5-0.2-0.7-0.4c-0.1-0.1-0.1-0.1-0.1-0.2c0-0.1-0.1-0.1-0.1-0.1c-0.1,0.1-0.3,0.2-0.5,0.2
			c-0.1,0-0.2,0.1-0.3,0c-0.1,0-0.1,0.1-0.2,0.1c0,0.1,0.1,0.1,0.2,0.1c0,0,0.1,0,0.1,0c0,0.1,0,0.1-0.1,0.1c-0.1,0-0.3,0.1-0.4,0
			c0,0-0.1,0-0.1,0c0,0,0,0.1,0,0.1c0,0.1,0.1,0.2,0.2,0.2c0.1,0,0.3,0.1,0.4,0.1c0,0,0,0,0,0c0,0,0,0,0,0c-0.1,0-0.1,0-0.2,0
			c-0.1,0-0.2,0-0.2,0.1c0,0.1-0.1,0.1-0.1,0.1c-0.1,0-0.1-0.1-0.1-0.1c0,0,0-0.1,0-0.1c0,0,0,0-0.1,0c0,0,0,0-0.1,0.1
			c0,0.2,0,0.3,0,0.5c0,0.1,0.1,0.1,0.1,0c0,0,0.1-0.1,0.1-0.1c0,0,0-0.1,0.1,0c0,0,0,0,0,0.1c0,0.1,0,0.1,0.1,0.1c0,0,0,0.1,0,0.1
			c-0.1,0.1-0.1,0.2-0.2,0.3c-0.1,0.1,0,0.2,0,0.2c-0.2-0.1-0.2-0.1-0.2,0.1c0,0,0,0,0,0.1c-0.1,0.1-0.1,0.1,0,0.2
			c-0.2,0-0.3,0-0.3,0.1c0,0.1-0.1,0.1-0.1,0.2c-0.1,0.1-0.1,0.2,0.1,0.2c0,0,0.1,0,0.1,0c0.1,0,0.1,0.1,0.1,0.1
			c0,0.1-0.1,0-0.1,0.1c-0.1,0.1-0.2,0.1-0.2-0.1c0,0-0.1-0.1-0.1,0c-0.1,0.1-0.1,0.1-0.1,0.2c0.1,0.1,0.1,0.2,0.2,0.3
			c0,0,0.1,0.1,0.1,0.1c-0.1,0-0.2-0.1-0.2-0.2c0,0-0.1-0.1-0.1-0.1c0,0,0,0.1,0,0.1c0,0.1,0.1,0.1,0.1,0.1c0,0,0.1,0.1,0.1,0.1
			c0,0,0,0-0.1,0.1c-0.1,0-0.1,0-0.1-0.1c0,0-0.1-0.1-0.1-0.1c-0.1,0,0,0.1,0,0.1c0.1,0.1,0.1,0.1,0,0.2c0,0,0,0.1,0,0.1
			c0,0,0,0.1,0,0.1c0,0,0,0-0.1,0c-0.2-0.1-0.2-0.3-0.3-0.5c-0.1-0.1,0-0.1,0.1-0.2c-0.1-0.1-0.2,0-0.2,0.1c-0.1,0,0,0.2-0.1,0.2
			c0-0.1,0-0.2,0-0.3c0.1-0.2,0.2-0.4,0.3-0.6c0,0,0-0.1,0-0.1c0,0-0.1,0-0.1,0c-0.1,0.1-0.2,0.1-0.1,0.2c0,0,0,0,0,0.1
			c0,0,0,0-0.1,0c-0.1-0.1-0.2-0.2-0.1-0.3c0.1-0.1,0.1-0.2,0.2-0.3c0-0.1,0-0.1-0.1-0.1c-0.2,0-0.4,0-0.6,0.1c0,0-0.1,0-0.1,0
			c0-0.2-0.1,0-0.1,0c-0.4,0.4-0.6,0.9-0.8,1.4c-0.1,0.3-0.2,0.6-0.3,0.8c-0.1,0.1-0.1,0.3-0.1,0.4c0,0.1-0.1,0.2-0.2,0.2
			c-0.9,0.2-1.7,0.3-2.6,0.3c-0.7,0-1.5,0-2.2-0.2c-0.5-0.1-0.9-0.2-1.3-0.3c-0.1,0-0.2-0.1-0.2-0.2c0,0,0,0,0,0
			c0-0.1-0.1-0.1-0.1-0.1c-0.1,0-0.3-0.1-0.4-0.1c-0.1-0.1-0.3-0.1-0.5-0.2c0.1,0.1,0.2,0.2,0.3,0.2l0,0c0,0.1-0.1,0-0.1,0
			c-0.6-0.2-1.2-0.5-1.7-0.8c-0.2-0.2-0.4-0.4-0.6-0.6c-0.1-0.2-0.3-0.3-0.5-0.4c-0.3-0.3-0.6-0.5-0.9-0.8c0,0.1,0,0.1,0,0.1
			c0,0,0,0.1,0,0.1c0,0-0.1,0-0.1,0c-0.2-0.2-0.4-0.3-0.6-0.5c-0.2-0.2-0.3-0.4-0.5-0.6C6.8,23.2,6.4,22.6,6,22
			c-0.4-0.7-0.7-1.4-1-2.2c0,0,0-0.1,0-0.1c0.1,0.1,0.3,0.2,0.4,0.4c-0.1-0.2-0.1-0.4-0.2-0.6C5.1,19,5,18.6,4.9,18.2
			c0-0.1,0-0.1-0.1-0.2c-0.1-0.1-0.2-0.2-0.3-0.4c-0.1-0.7-0.1-1.4-0.1-2.2c0-0.9,0.2-1.8,0.4-2.7C4.9,12.4,5,12.3,5,12.1
			c0.2-0.6,0.4-1.1,0.7-1.6c0.1-0.1,0.1-0.1,0.2,0c0.1,0.1,0.1,0.1,0.2,0c0.3-0.6,0.6-1.1,1-1.6c0-0.1,0.1-0.1,0-0.2
			c-0.1,0,0-0.1,0-0.1c0.1-0.1,0.2-0.2,0.3-0.4l0,0C7.5,8.1,7.5,8,7.6,8c0,0,0.1-0.1,0.1,0c0.1,0.1,0.1,0,0.2,0
			C8.2,7.4,8.6,7,9.1,6.6c0,0,0.1-0.1,0.1-0.1c0,0.1-0.1,0.1-0.1,0.2c0.1,0,0.1-0.1,0.2-0.1c0,0.1-0.1,0.1-0.1,0.2
			c0.2-0.1,0.4-0.3,0.6-0.4c0.2-0.1,0.4-0.2,0.7-0.2c0.2,0,0.4,0,0.6,0c0.2,0,0.4,0,0.6-0.1c-0.2,0-0.3,0-0.5,0
			c-0.1,0-0.3,0-0.4-0.1c0,0,0,0-0.1-0.1c-0.1-0.1,0-0.2,0-0.2c0.6-0.3,1.1-0.6,1.8-0.8c0.4-0.1,0.7-0.3,1.1-0.4
			c-0.1,0-0.3,0.1-0.4,0.1c-0.2,0-0.3,0.1-0.5,0.1c-0.1,0-0.2,0-0.3,0.2c0,0-0.1,0-0.1,0.1c-0.6,0.3-1.2,0.5-1.7,0.9
			C10.6,5.8,10.5,5.7,10.5,5.7L10.5,5.7z M19.7,9.5c0.1-0.1,0.1,0,0.2,0c0,0,0.1,0,0.1,0c0,0,0,0,0-0.1c0-0.1-0.1-0.1-0.2-0.1
			c-0.2,0-0.4,0-0.6-0.1c0,0,0,0-0.1,0c0,0,0,0,0,0.1c0.1,0,0.1,0,0.1,0.1c0,0-0.1,0.1-0.1,0c-0.2-0.1-0.3-0.1-0.5,0c0,0,0,0,0,0
			c-0.2,0-0.2,0.1-0.3,0.2c0,0.1-0.1,0.1-0.1,0c-0.1-0.1-0.3-0.1-0.4,0.1c0,0,0,0.1,0,0.1c0.2,0,0.3,0.2,0.5,0.2c0,0,0.1,0,0.1,0.1
			c0,0,0,0.1-0.1,0.1c-0.1,0-0.2,0-0.3,0c-0.3-0.1-0.6,0-0.9,0c-0.1,0-0.2,0-0.3,0c0,0-0.1,0-0.1,0.1c0,0,0,0,0.1,0
			c0.2,0,0.4,0.1,0.6,0.2c0,0,0,0,0,0.1c-0.1,0.1-0.2,0.2-0.4,0.2c-0.1,0-0.1,0.1-0.1,0.1c0,0.1,0.1,0.1,0.1,0.1
			c0.1,0,0.1,0.1,0.1,0.1c-0.1,0.4-0.1,0.8-0.1,1.2c0,0.1,0.1,0.2,0.1,0.3c0.1,0.1,0.4,0.1,0.5,0c0.1-0.2,0.2-0.3,0.3-0.5
			c0,0,0-0.1,0-0.2c-0.1-0.1-0.1-0.2-0.1-0.3c0-0.1,0-0.2-0.1-0.3c0,0,0-0.1,0-0.2c0-0.1,0-0.2,0.1-0.2c0-0.1,0-0.1,0.1-0.1
			c0.1,0,0.2,0.1,0.3,0c0,0,0.1,0,0.1,0c0,0.1,0,0.1,0.1,0.1c0,0,0.1,0,0.1-0.1c0,0.1,0,0.1,0,0.1c0,0-0.1,0-0.1,0.1
			c0,0.1,0.1,0,0.1,0.1c0.1,0,0.2,0.1,0.1,0.2c-0.1,0.1,0,0.1,0.1,0.1c0.1,0,0.2,0,0.3,0c0.1,0,0.1,0,0.2,0c0.1,0.1,0.1,0.1,0.2,0.2
			c0-0.1,0.1-0.1,0.2-0.1c0.1,0.1,0.1,0.1,0.2,0.2c0.2,0.1,0.3,0.2,0.5,0.3c0.1,0.1,0.2,0.1,0.2,0.2c0,0.2,0.3,0.2,0.2,0.4
			c0,0,0,0,0,0c0.2,0.2,0.3,0.4,0.4,0.6c0,0.1,0,0.2,0,0.3c0,0.1-0.1,0.3-0.2,0.3c-0.2,0-0.4,0-0.5,0.1c-0.1,0-0.1,0-0.1,0.1
			c0,0.2,0,0.2-0.2,0.3c-0.1,0-0.2,0-0.2,0.1c-0.1,0.2-0.3,0.2-0.4,0.2c-0.2,0-0.4,0-0.5-0.2c-0.2-0.2-0.5-0.3-0.6-0.4
			c-0.2-0.2-0.4-0.4-0.5-0.6c0-0.1-0.1-0.2-0.2-0.2c-0.1-0.1-0.1,0-0.2,0c0,0-0.1,0.1-0.1,0.1c0,0.1-0.1,0.2-0.2,0.2
			c-0.1,0-0.1,0.1-0.1,0.2c0.1,0.1,0.1,0.3,0.1,0.4c0,0.1,0,0.2,0.1,0.3c0,0,0,0.1,0,0.1c-0.1,0.2,0,0.3-0.1,0.5
			c0,0.1,0,0.2,0.1,0.2c0.1,0,0.1,0,0.1,0.1c-0.1,0.1-0.1,0.2,0.1,0.3c0,0,0,0,0,0c0.1,0.2,0.3,0.3,0.5,0.2c0,0,0.1,0,0.1,0
			c0.2,0.1,0.4,0.2,0.5,0.4c0,0.1,0,0.1,0,0.2c-0.1,0.1-0.2,0.3-0.3,0.3c-0.1,0.1-0.1,0.2-0.2,0.3c0,0,0,0.1,0,0.1
			c0.1,0,0.2,0.1,0.4,0.2c0.1,0,0.1,0,0.2,0c0.1-0.1,0-0.1,0-0.1c0,0,0,0,0-0.1c0,0,0,0,0,0c0.1,0.1,0.2,0,0.4,0
			c0.1,0,0.3-0.1,0.4,0.1c0,0,0.1,0,0.1,0c0.1,0,0.2,0,0.2,0.1c0,0.1,0.1,0.2,0.1,0.2c0.1,0,0.2,0.1,0.3,0.2c0.1,0.1,0.2,0,0.3,0
			c0.1,0,0.2-0.1,0.3-0.1c0.1,0,0.1-0.1,0.1-0.2c-0.1-0.1,0-0.1,0.1-0.1c0.1,0,0.1,0,0.1-0.1c0-0.1,0-0.1,0.1-0.1c0,0,0,0,0.1,0
			c0,0,0-0.1,0-0.1c0,0-0.1,0-0.1,0c0,0,0,0,0,0c0,0,0,0,0,0c0.1,0,0.2,0,0.3,0.1c0.1,0,0,0.1,0,0.1c0,0,0,0.1,0,0.1
			c0,0,0.1,0,0.1-0.1c0-0.1,0-0.2-0.1-0.3c0,0-0.1,0-0.1-0.1c0,0,0.1,0,0.1,0c0.1,0,0.1,0,0.1-0.1c0-0.1,0.1-0.2,0-0.3
			c0,0,0-0.1,0-0.1c0,0,0.1-0.1,0.1-0.1c0.1-0.1,0.1-0.2,0-0.3c-0.1-0.1-0.1-0.1,0-0.2c0.1-0.1,0-0.3,0.2-0.4c0,0,0,0,0-0.1
			c-0.1-0.3,0-0.7-0.1-1c0-0.3-0.1-0.7-0.1-1c0-0.3-0.2-0.6-0.3-0.9c0-0.1-0.1-0.2-0.1-0.3c-0.1-0.1-0.1-0.2-0.2-0.4
			c0-0.1,0-0.1,0-0.2c0.1-0.1,0.1-0.3,0-0.4c-0.1-0.1-0.1-0.1,0-0.2c0,0,0-0.1,0-0.1c0-0.2-0.2-0.4-0.1-0.7c0-0.1-0.1-0.2-0.1-0.2
			c0-0.1-0.1,0-0.1-0.1c0-0.1-0.1-0.1-0.2-0.2c-0.2,0-0.3-0.1-0.5-0.1C19.8,9.6,19.7,9.6,19.7,9.5z M23.5,21.7c0,0,0-0.1,0-0.1
			c-0.1-0.1,0-0.2,0-0.3c0.1-0.1,0.2-0.2,0.3-0.3c0.3-0.3,0.5-0.6,0.7-1c0.2-0.5,0.5-1.1,0.6-1.7c0-0.2,0.1-0.5,0.2-0.7
			c0.1-0.2,0-0.4,0.2-0.5c0,0,0,0,0,0c-0.1-0.1,0-0.2,0-0.4c0-0.1,0-0.3,0-0.4c0-0.1,0.1-0.3,0-0.4c0,0,0,0,0-0.1c0-0.1,0-0.1,0-0.2
			c0-0.1-0.1-0.2-0.1-0.3c0-0.4,0-0.8-0.1-1.2c-0.1-0.3-0.1-0.7-0.3-1c-0.2-0.6-0.4-1.1-0.8-1.7c-0.2-0.3-0.3-0.6-0.5-0.8
			c0,0,0,0,0-0.1c0.1-0.1,0-0.1-0.1-0.1c0,0-0.1,0-0.1-0.1c-0.2-0.2-0.4-0.5-0.6-0.6c-0.1-0.1-0.1-0.1-0.1-0.2
			c-0.1-0.1-0.2-0.2-0.3-0.3c-0.2-0.2-0.4-0.3-0.6-0.4c0,0.1,0.1,0.1,0.1,0.1c0.2,0.2,0.3,0.3,0.3,0.5c0,0,0,0.1,0.1,0.1
			c0.4,0.2,0.6,0.6,0.9,0.9c0.3,0.3,0.5,0.7,0.8,1.1c0.3,0.5,0.5,1,0.7,1.6c-0.1,0.1,0,0.2,0.1,0.3c0.1,0.3,0.2,0.6,0.2,0.9
			c0.1,0.5,0.1,1,0.1,1.5c0,0.1,0,0.2,0,0.3C25,16.4,25,16.5,25,16.6c0,0.1,0,0.2,0,0.3c0,0.1,0,0.2-0.1,0.3
			c-0.1,0.1-0.1,0.1-0.1,0.2c0,0.3-0.1,0.5-0.1,0.7c0,0.1-0.1,0.2-0.1,0.3c-0.1,0.1-0.2,0.1-0.1,0.3c0,0,0,0,0,0
			c-0.1,0.1-0.1,0.2-0.2,0.3c0,0.1,0,0.2,0,0.2c-0.1,0.2-0.2,0.3-0.3,0.5c-0.1,0.2-0.2,0.2-0.3,0.1c0,0,0,0.1,0,0.1c0,0,0,0.1,0,0.1
			c0,0.1,0,0.1-0.1,0.1c0,0-0.1,0-0.1,0c-0.1-0.1-0.1-0.1-0.2,0c0,0,0,0.1,0,0.1c0,0.1,0,0.3,0,0.4C23.2,21.3,23.4,21.4,23.5,21.7z
			 M10.4,20.5c0,0.1,0,0.1,0,0.2c0.1,0.1,0.1,0.1,0.1,0.2c0,0,0,0.1,0.1,0.1c0,0,0.1,0,0.1,0.1c0,0,0,0.1,0,0.1c0,0-0.1,0-0.1-0.1
			c-0.1-0.1-0.1-0.2-0.2-0.3c-0.2-0.2-0.3-0.4-0.4-0.6c-0.2-0.3-0.3-0.6-0.5-0.8C9.3,19,9.1,18.5,9,18.1c-0.1-0.5-0.2-1-0.3-1.4
			c-0.1-0.8,0-1.6,0.1-2.3c0.1-0.5,0.2-1,0.4-1.5c0.2-0.4,0.4-0.8,0.6-1.2c0-0.1,0.1,0,0.2-0.1c0-0.1-0.1-0.1,0-0.2
			c0.4-0.6,0.9-1.1,1.4-1.6c0.1-0.1,0.3-0.2,0.3-0.3c0-0.1,0.1-0.2,0.2-0.3c0,0,0.1-0.1,0-0.2c-0.1,0.1-0.2,0.2-0.3,0.3
			c-0.1,0.1-0.3,0.3-0.4,0.4c-0.2,0.2-0.5,0.4-0.7,0.7c-0.1,0.2-0.3,0.3-0.4,0.5c-0.4,0.6-0.7,1.2-1,1.8c-0.2,0.5-0.3,1-0.5,1.5
			c-0.2,0.6-0.1,1.3-0.2,1.9c0,0.6,0.1,1.2,0.2,1.7c0,0.2,0.1,0.4,0.2,0.6c0.1,0.2,0.2,0.5,0.3,0.7c0.1,0.3,0.2,0.5,0.4,0.8
			c0.1,0.2,0.3,0.4,0.4,0.6c0.2,0.3,0.4,0.5,0.6,0.8c0.1,0.1,0.2,0.2,0.2,0.4c0.2-0.2,0.1-0.5,0.1-0.7c0,0,0-0.1-0.1-0.1
			C10.5,20.9,10.5,20.7,10.4,20.5z M22.2,14.5c0,0.1-0.1,0.2-0.1,0.2c0.2,0.2,0.2,0.5,0.2,0.8c0,0.1,0,0.1-0.1,0.1
			c-0.1,0-0.2,0.2-0.3,0.2c0,0,0,0,0,0c0.1,0.1-0.1,0.2-0.1,0.2c-0.1,0.1-0.1,0.3-0.1,0.5c0,0.1-0.1,0.3,0.1,0.4
			c0.1,0.1,0.2,0.1,0.3,0c0.1-0.1,0.1-0.2,0.1-0.3c0.1-0.2,0.1-0.4,0.2-0.5c0.1-0.2,0.1-0.3,0.1-0.5c0-0.1,0.1-0.2,0-0.3
			c0,0,0-0.1,0-0.1C22.4,15,22.2,14.8,22.2,14.5z M17.6,9.8C17.6,9.8,17.6,9.7,17.6,9.8c-0.2-0.1-0.2-0.3-0.4-0.3c0,0,0,0-0.1,0
			c-0.1,0.1-0.1,0.1-0.2,0c0,0,0,0,0,0c0,0.1,0,0.1-0.1,0.1c0,0-0.1,0-0.1,0c0,0,0,0.1,0,0.1c0.1,0.1,0.4,0.2,0.5,0.1
			C17.4,9.8,17.5,9.8,17.6,9.8C17.6,9.9,17.6,9.8,17.6,9.8z M22.6,25.2c0.1-0.1,0.1-0.1,0.2-0.2c0.2-0.1,0.2-0.2,0.3-0.4
			c0.1-0.1,0.2-0.3,0.1-0.4c0,0,0-0.1,0-0.1c0.2,0,0.2,0,0.1-0.2c0,0,0,0,0-0.1c0,0,0-0.1,0-0.1c-0.1,0-0.1,0.1-0.1,0.1
			c0,0,0,0.1,0,0.1c0,0.1-0.1,0.3-0.1,0.4c-0.1,0.1-0.1,0.3-0.2,0.4C22.7,24.9,22.6,25,22.6,25.2z M22.9,24.1
			C22.9,24.1,22.8,24.2,22.9,24.1c-0.2,0.2-0.3,0.3-0.4,0.4c0,0-0.1,0.1,0,0.1c0.1,0.1,0,0.1,0,0.2c-0.1,0,0,0.1,0,0.1
			c0,0,0,0.1,0,0.1c0.1,0,0.1,0,0.1-0.1c0-0.1,0.1-0.1,0.1-0.1C22.8,24.6,22.9,24.4,22.9,24.1C23,24.1,23,24.1,22.9,24.1z
			 M23.3,17.9c0.1-0.1-0.3-1-0.4-1.1c-0.1,0.1-0.1,0.1,0,0.2C23,17.3,23.2,17.6,23.3,17.9z M22.3,13.9c0.1,0,0.2,0,0.2-0.1
			c0-0.1-0.1-0.2-0.2-0.2c-0.1,0-0.1,0.1-0.1,0.2C22.2,13.9,22.2,14,22.3,13.9z M22.3,24.1c0-0.1,0-0.1-0.1-0.1
			c-0.1,0-0.1,0.1-0.2,0c0,0-0.1,0,0,0c0.1,0.1,0.1,0.1,0,0.2c0,0.1,0,0.1,0.1,0.2c0,0,0.1,0,0.1-0.1C22.1,24.3,22.1,24.3,22.3,24.1
			C22.2,24.2,22.3,24.2,22.3,24.1z M22.7,16.6c0,0,0,0.1,0.1,0.1c0,0,0.1,0,0.1,0c0,0,0-0.1,0-0.1c0-0.1-0.1-0.2-0.1-0.3
			c0-0.1,0-0.2-0.1-0.2c0,0-0.1,0-0.1,0c0,0.1,0,0.2,0.1,0.2C22.7,16.4,22.8,16.5,22.7,16.6z M23.1,19.5c0.1-0.1,0.1-0.5,0-0.7
			C23,19,23,19.3,23.1,19.5z M14,4.2C14,4.2,14,4.1,14,4.2c-0.1,0-0.1-0.1-0.1-0.1c-0.2,0.1-0.4,0.2-0.6,0.3c0,0-0.1,0-0.1,0.1
			C13.5,4.3,13.7,4.2,14,4.2z M22.8,17.8c0,0.4,0.1,0.4,0.3,0.6C23,18.2,23,18,22.8,17.8z M23.3,19.8c-0.1,0.1,0,0.2,0,0.3
			c0,0.1,0.1,0,0.1,0c0,0,0.1,0,0.1,0C23.3,20,23.4,19.9,23.3,19.8z M21.9,24.6C21.9,24.6,21.9,24.6,21.9,24.6
			c-0.1-0.1-0.1-0.1-0.1,0c0,0-0.1,0.1-0.1,0.1c0,0-0.1,0.1-0.1,0.1c0,0.1,0.1,0,0.1,0C21.9,24.7,21.9,24.7,21.9,24.6z M21.2,24.6
			c-0.1,0.1-0.1,0.2-0.2,0.2c0,0,0,0,0,0c0,0,0,0,0,0C21.1,24.9,21.2,24.8,21.2,24.6z M8.2,23.5c-0.2,0-0.4,0-0.5,0c0,0,0,0,0,0
			C7.9,23.6,8.1,23.6,8.2,23.5z M22.5,14.2c0,0.1-0.1,0.2,0,0.4C22.6,14.5,22.6,14.4,22.5,14.2z M19.6,13.2
			C19.6,13.3,19.5,13.2,19.6,13.2c-0.1,0.1,0.1,0.1,0.1,0.1c0,0,0.1,0,0.1,0C19.8,13.3,19.7,13.3,19.6,13.2z M5.2,12.2
			c-0.1,0.1-0.1,0.3-0.1,0.4c0,0,0,0,0,0c0,0,0,0,0,0C5.2,12.5,5.2,12.4,5.2,12.2z M20,12.3C19.9,12.3,19.9,12.3,20,12.3
			c0,0.1,0,0.1,0.1,0.1c0,0,0.1,0,0.1,0C20.1,12.2,20,12.3,20,12.3z M23.4,22.5C23.5,22.5,23.5,22.4,23.4,22.5
			c0.1-0.1,0.1-0.1,0-0.1C23.4,22.3,23.4,22.4,23.4,22.5C23.4,22.5,23.4,22.5,23.4,22.5z M20,17.9C20,17.9,20,18,20,17.9
			c0,0.1,0,0.1,0,0.1C20.1,18.1,20.1,18,20,17.9C20.1,18,20.1,17.9,20,17.9z M23.1,19.8c0.1-0.1,0.1-0.1,0.1-0.2c0,0,0,0,0,0
			C23,19.7,23,19.7,23.1,19.8C23.1,19.8,23.1,19.8,23.1,19.8z M19.8,14c0.1,0.1,0.2,0,0.3,0C19.9,13.9,19.9,13.9,19.8,14z M12.1,6.3
			c0.1-0.1,0.2-0.1,0.2-0.2C12.2,6.2,12.1,6.3,12.1,6.3z M10.8,21.7c0.1-0.1,0.1-0.1,0.1-0.2c0,0,0,0,0,0
			C10.8,21.5,10.8,21.6,10.8,21.7z"/>
		<path d="M22.4,4.2C22.3,4.1,22.1,4.1,22,4c-0.1-0.1-0.2-0.1-0.3-0.1c-0.1,0-0.2-0.3-0.1-0.4c0,0,0,0,0.1,0c0,0,0,0,0.1,0
			C21.9,3.7,22.2,4,22.4,4.2C22.4,4.2,22.4,4.2,22.4,4.2z"/>
		<path d="M9.8,5.7c0,0.2-0.1,0.1-0.2,0.2c0-0.1,0-0.1,0.1-0.1c0,0,0-0.1,0-0.1c0,0-0.1,0-0.1,0c-0.1,0.1-0.2,0-0.3-0.1
			C9.2,5.6,9.1,5.5,9,5.5c0.3-0.1,0.4-0.1,0.6,0.1C9.7,5.7,9.7,5.7,9.8,5.7L9.8,5.7z"/>
		<path d="M19.7,29.3c0.1,0,0.2,0,0.3,0.1c0.1,0.1,0.1,0,0.2,0c0.1-0.1-0.1-0.1-0.1-0.1c0.1,0,0.2,0,0.3,0c0,0,0.1,0,0,0.1
			c0,0,0,0.1-0.1,0.2c-0.2,0.1-0.4,0.1-0.6,0.1c0,0-0.1,0-0.1-0.1C19.8,29.5,19.8,29.4,19.7,29.3C19.7,29.3,19.7,29.3,19.7,29.3z"/>
		<path d="M7.4,8.1C7.3,8.2,7.2,8.3,7.1,8.5c0,0-0.1,0.1-0.1,0c-0.1-0.1,0-0.1,0-0.1C7.1,8.2,7.2,8,7.4,7.8c0,0,0.1-0.1,0.1,0
			c0.1,0.1,0,0.1,0,0.1C7.5,8,7.4,8,7.4,8.1C7.4,8.1,7.4,8.1,7.4,8.1z"/>
		<path d="M7.7,7.6C8,7.2,8.4,6.9,8.8,6.5C8.8,6.7,8.7,6.8,8.6,6.9C8.4,7,8.2,7.2,8.1,7.3C8,7.3,8,7.3,7.9,7.4
			C7.8,7.4,7.8,7.5,7.7,7.6z"/>
		<path d="M8.4,5.9c0.1-0.2,0.3-0.3,0.5-0.3c0.1,0,0.2,0,0.2,0.1C9.1,5.7,9,5.7,9,5.8c-0.1,0.1-0.2,0-0.4,0.1
			C8.5,5.9,8.5,5.9,8.4,5.9z"/>
		<path d="M10.7,6C10.7,6,10.8,6,10.7,6c0.1,0.1,0.1,0.1,0.1,0.2c0,0-0.1,0-0.1,0c-0.1,0-0.2,0-0.3,0c0,0-0.1,0-0.1-0.1
			c0-0.1,0.1-0.1,0.2-0.2C10.6,5.9,10.7,5.9,10.7,6z"/>
		<path d="M8.4,25.6C8.2,25.4,8,25.2,7.8,25C8.1,25.1,8.3,25.3,8.4,25.6z"/>
		<path d="M4.8,18.9c-0.1-0.2-0.2-0.5-0.2-0.7c0.1,0.1,0.2,0.2,0.3,0.3c-0.1,0-0.2,0-0.1,0.2C4.8,18.8,4.9,18.9,4.8,18.9z"/>
		<path d="M28.9,9.7c0.2,0.1,0.2,0,0.2-0.1c0.1,0.2,0.2,0.4,0.3,0.6C29.2,10,29.1,9.9,28.9,9.7z"/>
		<path d="M6,7.6c0,0.1,0,0.2-0.1,0.2C5.8,8,5.6,8.1,5.5,8.3C5.6,8,5.8,7.8,6,7.6C6,7.6,6,7.6,6,7.6z"/>
		<path d="M13,27.5C13,27.5,13,27.5,13,27.5c0,0.1-0.1,0-0.1,0c-0.2-0.1-0.4-0.1-0.6-0.2c0,0,0,0,0,0c0-0.1,0-0.1,0.1-0.1
			C12.6,27.3,12.8,27.4,13,27.5z"/>
		<path d="M8.3,25.6c-0.1-0.1-0.2-0.2-0.4-0.3c-0.1-0.1-0.1-0.2-0.1-0.3C7.9,25.3,8.1,25.5,8.3,25.6z"/>
		<path d="M4.5,13.2c0,0.3-0.1,0.6-0.2,0.8C4.3,13.9,4.4,13.4,4.5,13.2z"/>
		<path d="M10.5,5.7c0.1,0.1,0,0.2-0.1,0.2c-0.1,0-0.2,0.1-0.3,0.1C10.2,5.8,10.3,5.7,10.5,5.7C10.5,5.7,10.5,5.7,10.5,5.7z"/>
		<path d="M22.1,29.3c0.2-0.1,0.5-0.2,0.7-0.2c0,0,0,0,0,0C22.6,29.2,22.4,29.3,22.1,29.3z"/>
		<path d="M9.3,25.7c-0.2-0.1-0.4-0.3-0.5-0.4c0,0,0,0,0,0C9,25.4,9.2,25.5,9.3,25.7C9.4,25.7,9.4,25.7,9.3,25.7z"/>
		<path d="M18.7,2.4c-0.1,0-0.2,0-0.2,0.1c-0.1,0-0.1-0.1-0.2-0.1C18.4,2.4,18.6,2.4,18.7,2.4z"/>
		<path d="M19.8,2.8c-0.1,0-0.2,0-0.4,0c0,0,0,0,0-0.1c0,0,0,0,0,0C19.6,2.7,19.7,2.7,19.8,2.8z"/>
		<path d="M20,2.8c0.2,0,0.3,0.1,0.5,0.2C20.3,2.9,20.1,2.9,20,2.8z"/>
		<path d="M6.1,22.4c-0.2-0.1-0.2-0.3-0.3-0.5C6,22.1,6,22.2,6.1,22.4z"/>
		<path d="M30.2,17.6c0-0.2,0-0.4,0.1-0.6C30.3,17.2,30.3,17.4,30.2,17.6z"/>
		<path d="M9.8,5.7c0.1,0,0.2-0.2,0.4-0.2C10.1,5.6,10,5.7,9.8,5.7C9.8,5.7,9.8,5.7,9.8,5.7z"/>
		<path d="M23.7,23.5c0,0,0,0.1-0.1,0.1c-0.1,0,0-0.1-0.1-0.1C23.6,23.5,23.6,23.4,23.7,23.5C23.7,23.4,23.7,23.5,23.7,23.5z"/>
		<path d="M7.6,7.7c0.1-0.1,0.2-0.2,0.3-0.3c0,0,0.1-0.1,0.1-0.1C8,7.5,7.8,7.6,7.6,7.7C7.7,7.7,7.7,7.7,7.6,7.7z"/>
		<path d="M25.9,6.8c-0.1-0.1-0.1-0.2-0.2-0.2c0,0,0,0,0,0C25.8,6.6,25.9,6.7,25.9,6.8C25.9,6.7,25.9,6.7,25.9,6.8z"/>
		<path d="M22,4.9c0.1,0,0.3,0.1,0.4,0.2C22.3,5,22.2,4.9,22,4.9z"/>
		<path d="M4.3,14.2c0,0.1,0,0.2-0.1,0.3C4.2,14.4,4.2,14.3,4.3,14.2z"/>
		<path d="M21.9,3.4c0.1,0,0.2,0.1,0.4,0.1C22.1,3.6,22,3.5,21.9,3.4z"/>
		<path d="M21.5,4.6c-0.1,0-0.2-0.1-0.3-0.1C21.3,4.5,21.4,4.5,21.5,4.6z"/>
		<path d="M10,4.1c-0.1,0-0.1,0.1-0.2,0.1C9.9,4.2,10,4.1,10,4.1z"/>
		<path d="M20.9,29.7c0.1-0.1,0.1-0.1,0.2,0C21,29.7,20.9,29.7,20.9,29.7z"/>
		<path d="M21.2,3.5c0-0.1,0.1-0.1,0.2-0.2C21.3,3.4,21.3,3.5,21.2,3.5z"/>
		<path d="M27.9,25.5C27.9,25.6,27.9,25.6,27.9,25.5c-0.1,0.1-0.1,0-0.1,0C27.8,25.5,27.9,25.5,27.9,25.5
			C27.9,25.5,27.9,25.5,27.9,25.5z"/>
		<path d="M24.7,29.2c0,0.1-0.1,0.1-0.1,0.1c-0.2,0.1-0.5,0.2-0.7,0.4c-0.3,0.2-0.7,0.3-1.1,0.4c-0.2,0.1-0.4,0.1-0.6,0.1
			C23,30,23.9,29.7,24.7,29.2L24.7,29.2z"/>
		<path d="M22.2,30.9c0.8-0.2,1.6-0.7,2.5-1c-0.1,0.1-0.1,0.2-0.2,0.2c-0.6,0.3-1.1,0.5-1.7,0.6C22.5,30.8,22.3,30.9,22.2,30.9z"/>
		<path d="M24.7,29.2c0.2-0.1,0.4-0.3,0.7-0.4c0,0,0,0,0,0C25.2,29.1,24.9,29.2,24.7,29.2C24.7,29.2,24.7,29.2,24.7,29.2z"/>
		<path d="M19.4,10.9C19.4,11,19.4,11,19.4,10.9c-0.2,0-0.3,0-0.4-0.1c-0.3-0.1-0.6-0.2-0.9-0.2c-0.1,0-0.3,0-0.4,0
			c-0.1,0-0.1,0-0.2-0.1c-0.1,0-0.1-0.1-0.1-0.2c0-0.1,0.1-0.1,0.1-0.1c0.2-0.1,0.3-0.1,0.5,0c0,0,0.1,0,0.1,0
			C18.6,10.4,19,10.7,19.4,10.9C19.4,10.9,19.4,10.9,19.4,10.9z"/>
		<path d="M18.9,16.4c-0.1,0-0.1-0.1-0.2-0.1c-0.1-0.1-0.1-0.2-0.2-0.2c0,0-0.1,0-0.1-0.1c0-0.1-0.1-0.2-0.1-0.3c0,0,0-0.1,0-0.1
			c0,0,0.1,0,0.1,0c0.1,0.2,0.3,0.4,0.3,0.6C18.8,16.3,18.9,16.3,18.9,16.4z"/>
		<path d="M19.1,11.2c-0.2,0-0.4,0-0.5-0.2c0,0-0.1-0.1,0-0.1c0-0.1,0.1,0,0.1,0C18.8,11,19,11.1,19.1,11.2z"/>
		<path d="M22.2,16C22.2,16,22.2,16,22.2,16c0-0.1,0-0.1,0-0.1c0,0,0.1,0,0.1,0C22.3,16,22.2,16,22.2,16z"/>
	</g>
</g>
</svg>
